<?xml version="1.0" standalone="no"?>
<!DOCTYPE svg PUBLIC "-//W3C//DTD SVG 20010904//EN"
 "http://www.w3.org/TR/2001/REC-SVG-20010904/DTD/svg10.dtd">
<svg version="1.0" xmlns="http://www.w3.org/2000/svg"
 width="750.000000pt" height="750.000000pt" viewBox="0 0 750.000000 750.000000"
 preserveAspectRatio="xMidYMid meet">
<metadata>
Created by potrace 1.14, written by Peter Selinger 2001-2017
</metadata>
<g transform="translate(0.000000,750.000000) scale(0.100000,-0.100000)"
fill="#000000" stroke="none">
<path d="M1137 7112 c-16 -18 -103 -205 -117 -253 -9 -30 4 -59 26 -59 8 0 33
9 56 21 22 11 44 17 48 12 4 -4 12 -33 19 -63 10 -48 42 -115 83 -171 15 -21
-18 -99 -196 -459 -148 -298 -181 -381 -173 -438 3 -20 21 -122 41 -225 41
-212 56 -383 56 -630 l0 -169 -85 -176 c-48 -97 -99 -193 -114 -212 -15 -19
-36 -51 -46 -70 -27 -53 -133 -151 -202 -187 -77 -42 -138 -44 -215 -8 -64 30
-99 32 -123 5 -25 -28 -13 -82 27 -115 48 -41 236 -131 298 -144 63 -12 112
-4 162 27 92 57 162 92 169 85 11 -11 37 -328 49 -603 27 -623 35 -718 66
-813 9 -27 12 -52 8 -57 -5 -4 -63 -22 -129 -40 -129 -34 -339 -112 -367 -138
-22 -18 -23 -45 -3 -103 8 -24 16 -59 18 -78 6 -59 22 -60 154 -7 293 115 659
181 1147 206 199 10 344 28 400 50 14 5 28 20 32 35 7 27 33 33 78 15 39 -14
54 -3 59 43 2 23 16 123 31 222 14 99 31 223 37 275 21 190 76 428 148 640 98
290 105 321 91 392 -6 32 -8 63 -5 68 10 17 -23 67 -52 78 -15 6 -53 16 -85
22 -71 14 -128 52 -209 139 -68 73 -109 130 -164 223 -45 77 -114 158 -136
158 -20 0 -56 -43 -160 -190 -100 -144 -245 -291 -322 -330 -33 -16 -71 -30
-83 -30 -25 0 -49 -28 -59 -70 -4 -16 7 -67 30 -140 103 -324 199 -953 181
-1183 -7 -94 -35 -164 -68 -171 -13 -3 -70 -10 -128 -16 -58 -7 -150 -20 -205
-30 -55 -10 -103 -16 -108 -13 -4 2 -3 13 3 23 5 10 10 28 10 39 0 11 10 36
21 56 15 26 20 46 17 73 -3 20 -2 96 3 167 4 73 3 242 -3 385 -5 140 -11 368
-12 505 -3 269 -5 281 -63 386 l-27 50 56 112 c94 188 230 488 306 677 62 152
94 229 162 385 29 66 60 140 69 165 9 25 24 59 33 75 9 17 41 91 71 165 31 74
76 180 102 235 25 55 50 109 54 120 18 46 86 179 155 305 78 143 183 279 270
350 75 61 85 57 138 -57 61 -130 108 -288 108 -359 0 -14 13 -68 29 -122 16
-53 31 -117 34 -142 3 -25 13 -65 22 -90 9 -25 27 -97 40 -160 27 -134 105
-414 136 -491 12 -30 34 -90 49 -134 75 -219 250 -554 339 -648 40 -43 127
-90 153 -82 55 15 158 59 158 68 0 5 -32 43 -70 85 -49 52 -83 100 -111 158
-22 45 -44 84 -48 86 -14 5 -159 339 -195 450 -19 59 -40 137 -46 175 -7 37
-24 118 -40 178 -15 61 -31 130 -35 155 -4 25 -19 99 -35 165 -16 66 -32 147
-35 180 -3 33 -12 89 -20 125 -7 36 -16 84 -19 108 -9 61 -63 227 -96 292 -40
77 -83 135 -171 228 -63 66 -84 82 -115 87 -22 3 -54 13 -73 21 -55 24 -120
28 -189 10 -137 -35 -244 -137 -385 -366 -78 -127 -217 -398 -217 -423 0 -9
-4 -18 -9 -21 -5 -3 -20 -34 -34 -68 -14 -35 -36 -88 -50 -118 -41 -92 -104
-241 -238 -568 -142 -345 -146 -355 -158 -348 -4 3 -11 88 -14 188 -7 188 -32
363 -60 431 -16 37 -16 39 7 75 52 79 202 357 302 556 106 212 119 253 89 287
-9 9 -29 68 -46 130 -16 62 -42 136 -58 164 l-29 51 29 32 c16 18 29 37 29 42
0 16 -60 49 -129 70 -78 25 -103 25 -124 2z m936 -2859 c56 -73 228 -243 292
-288 69 -50 79 -67 71 -128 -4 -29 -34 -133 -67 -232 -54 -159 -65 -211 -104
-445 -47 -288 -85 -594 -85 -677 0 -29 -3 -53 -6 -53 -3 0 -33 11 -67 24 -100
38 -128 46 -171 46 -23 0 -57 3 -77 6 l-36 6 5 122 c5 123 -14 335 -43 493 -8
43 -26 143 -40 223 -30 174 -72 334 -120 459 -40 107 -41 111 -18 111 10 0 49
12 88 27 57 21 82 39 135 92 36 37 81 95 100 129 37 67 87 142 94 142 3 0 25
-26 49 -57z"/>
<path d="M1965 3159 c-9 -13 5 -149 17 -172 16 -30 51 -17 65 23 16 46 16 133
1 148 -15 15 -74 16 -83 1z"/>
<path d="M3685 6514 c-16 -2 -73 -9 -125 -15 -97 -11 -292 -49 -390 -75 -97
-27 -180 -55 -180 -62 0 -32 37 -165 47 -169 7 -3 47 7 90 21 135 44 294 77
523 107 119 15 478 12 620 -6 407 -51 792 -184 1123 -389 774 -478 1263 -1259
1357 -2166 13 -127 13 -430 -1 -566 -51 -523 -247 -1025 -566 -1453 -119 -160
-400 -439 -565 -562 -423 -315 -899 -498 -1426 -550 -149 -15 -510 -6 -652 16
-645 100 -1214 398 -1657 869 -100 107 -270 331 -343 451 -56 92 -53 91 -146
74 -79 -14 -94 -19 -94 -30 0 -5 27 -55 61 -110 431 -714 1136 -1225 1928
-1398 241 -53 360 -65 646 -66 265 0 352 7 555 46 489 94 928 296 1320 608
181 145 410 386 557 586 720 983 776 2345 140 3391 -137 226 -284 409 -489
609 -386 378 -855 638 -1382 765 -237 58 -357 72 -651 75 -148 2 -283 1 -300
-1z"/>
<path d="M2203 5810 c-52 -11 -137 -51 -192 -90 -57 -42 -148 -183 -177 -277
-16 -48 -25 -101 -26 -153 -1 -76 1 -82 40 -148 62 -104 123 -166 200 -204 57
-28 77 -33 142 -33 95 0 135 19 216 101 96 99 143 207 159 364 8 77 -15 160
-75 281 -48 95 -100 143 -169 158 -58 12 -59 12 -118 1z m-51 -192 c10 -29 -3
-113 -19 -125 -29 -22 -103 -10 -103 17 0 11 100 120 110 120 4 0 10 -6 12
-12z m196 -20 c5 -7 13 -41 17 -75 8 -69 3 -73 -50 -53 -21 8 -24 14 -19 37
24 107 30 117 52 91z m-244 -276 c4 -7 -15 -102 -30 -151 -6 -18 -39 11 -60
51 -17 34 -18 95 -1 101 20 9 85 8 91 -1z m241 -1 c8 -14 -31 -110 -56 -137
-32 -34 -49 -31 -49 9 1 47 19 120 33 129 17 11 65 10 72 -1z"/>
<path d="M5872 3183 c-5 -10 -15 -46 -21 -80 -7 -35 -30 -123 -52 -195 -98
-327 -103 -473 -17 -514 25 -12 40 -13 60 -5 32 12 50 41 38 62 -8 12 -13 12
-30 1 -32 -20 -57 -7 -63 33 -12 73 37 294 117 534 47 137 48 160 10 175 -25
9 -33 7 -42 -11z"/>
<path d="M2915 2988 c-85 -30 -261 -190 -340 -309 -96 -144 -128 -252 -89
-307 20 -28 64 -30 64 -3 0 11 -4 23 -10 26 -5 3 -10 27 -10 53 1 133 225 398
405 478 91 40 180 27 222 -32 49 -68 67 -203 38 -284 -24 -68 -97 -169 -191
-263 -62 -61 -85 -90 -77 -98 45 -45 256 175 313 327 28 77 28 209 -1 265 -27
54 -92 123 -133 143 -39 18 -144 20 -191 4z"/>
<path d="M4585 2952 c-6 -4 -18 -32 -29 -62 -10 -30 -26 -73 -36 -95 -28 -62
-120 -314 -120 -328 0 -44 -47 -136 -98 -195 -143 -164 -163 -176 -190 -120
-23 48 25 205 77 252 20 18 21 18 30 -7 17 -45 49 -46 70 -1 35 77 -20 156
-91 132 -52 -18 -118 -123 -152 -240 -9 -32 -20 -58 -24 -58 -4 0 -31 24 -60
53 -52 53 -65 90 -41 114 18 18 2 43 -26 43 -35 0 -65 -33 -65 -73 0 -33 25
-77 95 -167 51 -67 45 -103 -21 -116 -40 -7 -63 13 -69 61 -3 22 -10 44 -16
50 -16 16 -39 -23 -39 -67 0 -75 89 -137 166 -116 30 7 86 60 96 89 3 8 17 3
46 -16 33 -21 49 -26 75 -21 37 7 99 66 138 131 l24 40 3 -57 c2 -31 9 -61 16
-67 22 -18 44 -2 50 37 9 52 102 234 142 279 41 47 43 33 12 -72 -20 -67 -21
-80 -10 -122 16 -57 28 -73 55 -73 18 0 19 4 12 53 -12 83 -7 123 30 234 19
57 35 112 35 123 0 27 -36 45 -64 32 -19 -8 -112 -123 -153 -188 -23 -36 -14
16 13 81 14 33 41 101 61 150 19 50 46 114 59 143 13 29 24 56 24 61 0 5 7 14
16 21 8 7 14 24 12 38 -3 27 -37 55 -53 44z"/>
<path d="M5166 2904 c-24 -23 -18 -41 18 -61 47 -26 78 24 38 60 -23 21 -36
21 -56 1z"/>
<path d="M6054 2881 c-94 -57 -191 -270 -168 -368 27 -113 114 -159 210 -110
72 37 140 123 151 192 8 47 -12 45 -42 -5 -34 -57 -99 -116 -149 -135 -47 -18
-47 -18 -71 5 -20 19 -25 33 -25 72 0 27 7 64 15 84 13 33 16 34 53 28 57 -9
96 15 128 79 36 69 38 132 5 158 -29 24 -67 24 -107 0z m30 -128 c-20 -40 -54
-58 -54 -28 0 18 58 81 67 72 3 -3 -3 -23 -13 -44z"/>
<path d="M3906 2858 c-9 -12 -16 -28 -16 -36 0 -20 -46 -106 -66 -123 -9 -8
-51 -23 -93 -35 -68 -18 -76 -23 -79 -46 -5 -40 27 -53 72 -31 20 9 39 14 42
10 4 -4 -16 -55 -43 -114 -28 -60 -65 -153 -82 -208 -28 -88 -39 -107 -87
-159 -42 -46 -57 -57 -66 -48 -15 15 11 96 53 162 58 94 58 130 -2 130 -18 0
-32 7 -39 19 -14 27 -62 36 -98 17 -64 -33 -210 -213 -253 -313 -36 -84 -21
-151 39 -174 57 -22 99 4 204 130 l27 32 13 -27 c32 -65 80 -57 140 23 l42 57
17 -41 c19 -45 39 -60 84 -65 45 -5 44 25 -1 51 l-37 22 6 72 c4 58 18 104 72
241 39 97 80 182 96 201 27 30 34 33 103 37 48 3 85 11 102 23 26 17 27 18 9
31 -11 8 -43 14 -75 14 -31 0 -59 3 -63 6 -3 4 5 23 18 43 29 41 32 83 9 105
-21 21 -30 20 -48 -6z m-461 -558 c8 -12 -21 -62 -99 -172 -95 -135 -146 -179
-146 -128 0 46 81 171 173 268 41 42 60 51 72 32z"/>
<path d="M5572 2840 c-13 -6 -30 -27 -39 -47 -25 -60 -12 -129 41 -228 52 -96
63 -165 26 -165 -26 0 -43 34 -50 100 -3 30 -9 55 -15 55 -5 0 -19 -16 -32
-35 -56 -86 -71 -107 -115 -153 -29 -30 -54 -47 -65 -45 -29 5 -55 66 -50 117
6 59 23 75 65 60 26 -9 37 -8 57 5 33 22 97 139 102 189 6 55 -24 97 -68 97
-45 0 -127 -87 -172 -181 -30 -64 -41 -102 -63 -215 -5 -28 -74 -98 -86 -86
-14 14 38 228 83 339 16 39 -1 66 -40 61 -22 -3 -26 -9 -37 -73 -15 -90 -44
-195 -55 -195 -4 0 -10 26 -14 58 -20 183 -39 256 -70 268 -9 4 -17 5 -19 3
-2 -2 5 -62 15 -134 20 -142 25 -299 9 -339 -20 -55 -63 -17 -74 66 -9 59 -34
93 -63 84 -12 -4 -25 -17 -30 -29 -14 -38 -88 -167 -95 -167 -23 0 -6 56 65
224 47 112 50 120 36 145 -10 17 -23 26 -39 26 -21 0 -25 -7 -36 -60 -7 -33
-22 -81 -33 -107 -31 -73 -61 -181 -61 -222 0 -63 47 -108 95 -90 17 7 55 75
74 137 7 20 16 37 21 37 5 0 15 -19 22 -42 18 -54 56 -83 110 -83 23 0 43 5
45 11 2 6 9 19 16 28 11 16 15 16 41 2 26 -13 33 -13 57 -1 15 8 41 31 57 51
l30 37 40 -42 c43 -45 80 -53 119 -26 23 16 110 127 120 151 9 25 19 15 34
-33 19 -63 62 -90 114 -73 19 6 44 23 56 38 29 38 20 82 -42 202 -45 87 -50
103 -47 151 3 50 5 54 28 54 36 0 39 37 4 64 -29 23 -38 24 -72 11z m-152
-167 c0 -40 -69 -117 -87 -99 -9 8 10 47 42 84 30 36 45 41 45 15z"/>
<path d="M2963 2683 c-7 -2 -18 -23 -24 -46 -6 -23 -30 -73 -54 -112 -23 -38
-75 -130 -114 -203 -175 -321 -246 -531 -198 -579 28 -28 44 -9 49 59 6 76 72
246 148 382 28 49 50 93 50 97 0 5 20 39 44 76 24 37 67 109 95 160 29 51 56
95 61 98 16 10 11 34 -10 55 -21 21 -26 22 -47 13z"/>
<path d="M3320 2661 c-5 -11 -10 -25 -10 -32 0 -6 -49 -94 -109 -194 -234
-390 -288 -518 -247 -580 19 -28 47 -33 66 -10 10 13 10 19 -4 33 -9 10 -16
28 -16 41 0 42 148 311 294 536 122 187 119 180 88 208 -25 22 -49 21 -62 -2z"/>
<path d="M3396 2551 c-21 -24 -14 -57 15 -66 46 -15 65 44 23 71 -18 13 -23
12 -38 -5z"/>
<path d="M3499 2554 c-17 -20 -1 -48 31 -52 35 -6 46 13 26 42 -19 30 -38 33
-57 10z"/>
<path d="M5709 2096 c-2 -3 -42 -8 -89 -11 -97 -7 -121 -10 -585 -64 -424 -50
-592 -72 -831 -111 -104 -17 -207 -33 -229 -36 -39 -5 -229 -38 -525 -90 -80
-14 -185 -35 -235 -46 -49 -11 -117 -26 -150 -33 -33 -7 -87 -20 -120 -29 -32
-9 -74 -16 -93 -16 -72 0 -94 -41 -45 -80 34 -26 66 -23 173 16 41 15 122 37
180 50 164 36 336 72 435 89 50 9 126 23 170 31 44 8 105 19 135 24 112 17
135 22 153 31 9 6 23 9 30 8 13 -3 71 5 197 26 47 8 121 19 165 25 44 6 100
16 125 21 25 5 124 18 220 29 219 26 389 48 460 59 30 5 91 12 135 15 44 3
132 12 195 20 63 8 144 17 180 21 63 6 157 21 193 31 9 3 15 10 12 15 -6 9
-247 13 -256 5z"/>
</g>
</svg>
